<svg width="30" height="23" viewBox="0 0 30 23" fill="none" xmlns="http://www.w3.org/2000/svg">
<g filter="url(#filter0_d_1_51)">
<path fill-rule="evenodd" clip-rule="evenodd" d="M15 1C9.48 1 5 5.48 5 11C5 16.52 9.48 21 15 21C20.52 21 25 16.52 25 11C25 5.48 20.52 1 15 1ZM10.07 17.28C10.5 16.38 13.12 15.5 15 15.5C16.88 15.5 19.51 16.38 19.93 17.28C18.57 18.36 16.86 19 15 19C13.14 19 11.43 18.36 10.07 17.28ZM21.36 15.83C19.93 14.09 16.46 13.5 15 13.5C13.54 13.5 10.07 14.09 8.64 15.83C7.62 14.49 7 12.82 7 11C7 6.59 10.59 3 15 3C19.41 3 23 6.59 23 11C23 12.82 22.38 14.49 21.36 15.83V15.83ZM15 5C13.06 5 11.5 6.56 11.5 8.5C11.5 10.44 13.06 12 15 12C16.94 12 18.5 10.44 18.5 8.5C18.5 6.56 16.94 5 15 5ZM15 10C14.17 10 13.5 9.33 13.5 8.5C13.5 7.67 14.17 7 15 7C15.83 7 16.5 7.67 16.5 8.5C16.5 9.33 15.83 10 15 10Z" fill="white"/>
<path d="M10.07 17.28L9.61885 17.0644L9.44713 17.4239L9.75906 17.6716L10.07 17.28ZM19.93 17.28L20.2409 17.6716L20.55 17.4262L20.3831 17.0686L19.93 17.28ZM8.64 15.83L8.24215 16.1328L8.62497 16.6358L9.02629 16.1475L8.64 15.83ZM15 0.5C9.20386 0.5 4.5 5.20386 4.5 11H5.5C5.5 5.75614 9.75614 1.5 15 1.5V0.5ZM4.5 11C4.5 16.7961 9.20386 21.5 15 21.5V20.5C9.75614 20.5 5.5 16.2439 5.5 11H4.5ZM15 21.5C20.7961 21.5 25.5 16.7961 25.5 11H24.5C24.5 16.2439 20.2439 20.5 15 20.5V21.5ZM25.5 11C25.5 5.20386 20.7961 0.5 15 0.5V1.5C20.2439 1.5 24.5 5.75614 24.5 11H25.5ZM10.5212 17.4956C10.5662 17.4013 10.711 17.2402 11.0218 17.0465C11.3175 16.8622 11.7085 16.6822 12.1574 16.5241C13.058 16.2068 14.1265 16 15 16V15C13.9935 15 12.812 15.2332 11.8251 15.5809C11.3302 15.7553 10.8681 15.964 10.4929 16.1978C10.1327 16.4223 9.7888 16.7087 9.61885 17.0644L10.5212 17.4956ZM15 16C15.8736 16 16.9447 16.2068 17.8465 16.5242C18.2961 16.6823 18.6872 16.8623 18.9822 17.0464C19.2927 17.2401 19.4343 17.4001 19.4769 17.4914L20.3831 17.0686C20.2157 16.7099 19.8711 16.4224 19.5116 16.198C19.1366 15.964 18.6739 15.7552 18.1785 15.5808C17.1903 15.2332 16.0064 15 15 15V16ZM19.6191 16.8884C18.3442 17.9008 16.7429 18.5 15 18.5V19.5C16.9771 19.5 18.7958 18.8192 20.2409 17.6716L19.6191 16.8884ZM15 18.5C13.2571 18.5 11.6558 17.9008 10.3809 16.8884L9.75906 17.6716C11.2042 18.8192 13.0229 19.5 15 19.5V18.5ZM21.7463 15.5125C20.9353 14.5258 19.5926 13.9072 18.3336 13.5332C17.0611 13.1552 15.7807 13 15 13V14C15.6793 14 16.8639 14.1398 18.0489 14.4918C19.2474 14.8478 20.3547 15.3942 20.9737 16.1475L21.7463 15.5125ZM15 13C14.2193 13 12.9389 13.1552 11.6664 13.5332C10.4074 13.9072 9.06469 14.5258 8.25371 15.5125L9.02629 16.1475C9.64531 15.3942 10.7526 14.8478 11.9511 14.4918C13.1361 14.1398 14.3207 14 15 14V13ZM9.03785 15.5272C8.0801 14.2689 7.5 12.7041 7.5 11H6.5C6.5 12.9359 7.1599 14.7111 8.24215 16.1328L9.03785 15.5272ZM7.5 11C7.5 6.86614 10.8661 3.5 15 3.5V2.5C10.3139 2.5 6.5 6.31386 6.5 11H7.5ZM15 3.5C19.1339 3.5 22.5 6.86614 22.5 11H23.5C23.5 6.31386 19.6861 2.5 15 2.5V3.5ZM22.5 11C22.5 12.7041 21.9199 14.2689 20.9621 15.5272L21.7579 16.1328C22.8401 14.7111 23.5 12.9359 23.5 11H22.5ZM15 4.5C12.7839 4.5 11 6.28386 11 8.5H12C12 6.83614 13.3361 5.5 15 5.5V4.5ZM11 8.5C11 10.7161 12.7839 12.5 15 12.5V11.5C13.3361 11.5 12 10.1639 12 8.5H11ZM15 12.5C17.2161 12.5 19 10.7161 19 8.5H18C18 10.1639 16.6639 11.5 15 11.5V12.5ZM19 8.5C19 6.28386 17.2161 4.5 15 4.5V5.5C16.6639 5.5 18 6.83614 18 8.5H19ZM15 9.5C14.4461 9.5 14 9.05386 14 8.5H13C13 9.60614 13.8939 10.5 15 10.5V9.5ZM14 8.5C14 7.94614 14.4461 7.5 15 7.5V6.5C13.8939 6.5 13 7.39386 13 8.5H14ZM15 7.5C15.5539 7.5 16 7.94614 16 8.5H17C17 7.39386 16.1061 6.5 15 6.5V7.5ZM16 8.5C16 9.05386 15.5539 9.5 15 9.5V10.5C16.1061 10.5 17 9.60614 17 8.5H16Z" fill="black"/>
</g>
<defs>
<filter id="filter0_d_1_51" x="0.5" y="0.5" width="29" height="29" filterUnits="userSpaceOnUse" color-interpolation-filters="sRGB">
<feFlood flood-opacity="0" result="BackgroundImageFix"/>
<feColorMatrix in="SourceAlpha" type="matrix" values="0 0 0 0 0 0 0 0 0 0 0 0 0 0 0 0 0 0 127 0" result="hardAlpha"/>
<feOffset dy="4"/>
<feGaussianBlur stdDeviation="2"/>
<feComposite in2="hardAlpha" operator="out"/>
<feColorMatrix type="matrix" values="0 0 0 0 0 0 0 0 0 0 0 0 0 0 0 0 0 0 0.25 0"/>
<feBlend mode="normal" in2="BackgroundImageFix" result="effect1_dropShadow_1_51"/>
<feBlend mode="normal" in="SourceGraphic" in2="effect1_dropShadow_1_51" result="shape"/>
</filter>
</defs>
</svg>
